<svg width="76" height="34" viewBox="0 0 76 34" fill="none" xmlns="http://www.w3.org/2000/svg">
<g clip-path="url(#clip0_601_9)">
<rect width="76" height="34" fill="white"/>
<path d="M5.375 7.67969H2.49219L2.47656 6.46875H5.09375C5.52604 6.46875 5.90365 6.39583 6.22656 6.25C6.54948 6.10417 6.79948 5.89583 6.97656 5.625C7.15885 5.34896 7.25 5.02083 7.25 4.64062C7.25 4.22396 7.16927 3.88542 7.00781 3.625C6.85156 3.35938 6.60938 3.16667 6.28125 3.04688C5.95833 2.92188 5.54688 2.85938 5.04688 2.85938H2.82812V13H1.32031V1.625H5.04688C5.63021 1.625 6.15104 1.6849 6.60938 1.80469C7.06771 1.91927 7.45573 2.10156 7.77344 2.35156C8.09635 2.59635 8.34115 2.90885 8.50781 3.28906C8.67448 3.66927 8.75781 4.125 8.75781 4.65625C8.75781 5.125 8.63802 5.54948 8.39844 5.92969C8.15885 6.30469 7.82552 6.61198 7.39844 6.85156C6.97656 7.09115 6.48177 7.24479 5.91406 7.3125L5.375 7.67969ZM5.30469 13H1.89844L2.75 11.7734H5.30469C5.78385 11.7734 6.1901 11.6901 6.52344 11.5234C6.86198 11.3568 7.11979 11.1224 7.29688 10.8203C7.47396 10.513 7.5625 10.151 7.5625 9.73438C7.5625 9.3125 7.48698 8.94792 7.33594 8.64062C7.1849 8.33333 6.94792 8.09635 6.625 7.92969C6.30208 7.76302 5.88542 7.67969 5.375 7.67969H3.22656L3.24219 6.46875H6.17969L6.5 6.90625C7.04688 6.95312 7.51042 7.10938 7.89062 7.375C8.27083 7.63542 8.5599 7.96875 8.75781 8.375C8.96094 8.78125 9.0625 9.22917 9.0625 9.71875C9.0625 10.4271 8.90625 11.026 8.59375 11.5156C8.28646 12 7.85156 12.3698 7.28906 12.625C6.72656 12.875 6.0651 13 5.30469 13ZM11.2891 1.625H15.0547C15.9089 1.625 16.6302 1.75521 17.2188 2.01562C17.8125 2.27604 18.263 2.66146 18.5703 3.17188C18.8828 3.67708 19.0391 4.29948 19.0391 5.03906C19.0391 5.5599 18.9323 6.03646 18.7188 6.46875C18.5104 6.89583 18.2083 7.26042 17.8125 7.5625C17.4219 7.85938 16.9531 8.08073 16.4062 8.22656L15.9844 8.39062H12.4453L12.4297 7.16406H15.1016C15.6432 7.16406 16.0938 7.07031 16.4531 6.88281C16.8125 6.6901 17.0833 6.43229 17.2656 6.10938C17.4479 5.78646 17.5391 5.42969 17.5391 5.03906C17.5391 4.60156 17.4531 4.21875 17.2812 3.89062C17.1094 3.5625 16.8385 3.3099 16.4688 3.13281C16.1042 2.95052 15.6328 2.85938 15.0547 2.85938H12.7969V13H11.2891V1.625ZM17.9375 13L15.1719 7.84375L16.7422 7.83594L19.5469 12.9062V13H17.9375ZM28.375 11.7734V13H22.3516V11.7734H28.375ZM22.6562 1.625V13H21.1484V1.625H22.6562ZM27.5781 6.51562V7.74219H22.3516V6.51562H27.5781ZM28.2969 1.625V2.85938H22.3516V1.625H28.2969ZM30.7188 1.625H32.1797L35.9062 10.8984L39.625 1.625H41.0938L36.4688 13H35.3281L30.7188 1.625ZM30.2422 1.625H31.5312L31.7422 8.5625V13H30.2422V1.625ZM40.2734 1.625H41.5625V13H40.0625V8.5625L40.2734 1.625ZM52.9688 6.95312V7.67188C52.9688 8.52604 52.862 9.29167 52.6484 9.96875C52.4349 10.6458 52.1276 11.2214 51.7266 11.6953C51.3255 12.1693 50.8438 12.5312 50.2812 12.7812C49.724 13.0312 49.099 13.1562 48.4062 13.1562C47.7344 13.1562 47.1172 13.0312 46.5547 12.7812C45.9974 12.5312 45.513 12.1693 45.1016 11.6953C44.6953 11.2214 44.3802 10.6458 44.1562 9.96875C43.9323 9.29167 43.8203 8.52604 43.8203 7.67188V6.95312C43.8203 6.09896 43.9297 5.33594 44.1484 4.66406C44.3724 3.98698 44.6875 3.41146 45.0938 2.9375C45.5 2.45833 45.9818 2.09375 46.5391 1.84375C47.1016 1.59375 47.7188 1.46875 48.3906 1.46875C49.0833 1.46875 49.7083 1.59375 50.2656 1.84375C50.8281 2.09375 51.3099 2.45833 51.7109 2.9375C52.1172 3.41146 52.4271 3.98698 52.6406 4.66406C52.8594 5.33594 52.9688 6.09896 52.9688 6.95312ZM51.4766 7.67188V6.9375C51.4766 6.26042 51.4062 5.66146 51.2656 5.14062C51.1302 4.61979 50.9297 4.18229 50.6641 3.82812C50.3984 3.47396 50.0729 3.20573 49.6875 3.02344C49.3073 2.84115 48.875 2.75 48.3906 2.75C47.9219 2.75 47.4974 2.84115 47.1172 3.02344C46.7422 3.20573 46.4193 3.47396 46.1484 3.82812C45.8828 4.18229 45.6771 4.61979 45.5312 5.14062C45.3854 5.66146 45.3125 6.26042 45.3125 6.9375V7.67188C45.3125 8.35417 45.3854 8.95833 45.5312 9.48438C45.6771 10.0052 45.8854 10.4453 46.1562 10.8047C46.4323 11.1589 46.7578 11.4271 47.1328 11.6094C47.513 11.7917 47.9375 11.8828 48.4062 11.8828C48.8958 11.8828 49.3307 11.7917 49.7109 11.6094C50.0911 11.4271 50.4115 11.1589 50.6719 10.8047C50.9375 10.4453 51.138 10.0052 51.2734 9.48438C51.4089 8.95833 51.4766 8.35417 51.4766 7.67188ZM63.9766 1.625V13H62.4609L56.7344 4.22656V13H55.2266V1.625H56.7344L62.4844 10.4219V1.625H63.9766ZM69.7266 13H67.3516L67.3672 11.7734H69.7266C70.5391 11.7734 71.2161 11.6042 71.7578 11.2656C72.2995 10.9219 72.7057 10.4427 72.9766 9.82812C73.2526 9.20833 73.3906 8.48438 73.3906 7.65625V6.96094C73.3906 6.3099 73.3125 5.73177 73.1562 5.22656C73 4.71615 72.7708 4.28646 72.4688 3.9375C72.1667 3.58333 71.7969 3.3151 71.3594 3.13281C70.9271 2.95052 70.4297 2.85938 69.8672 2.85938H67.3047V1.625H69.8672C70.612 1.625 71.2917 1.75 71.9062 2C72.5208 2.24479 73.0495 2.60156 73.4922 3.07031C73.9401 3.53385 74.2839 4.09635 74.5234 4.75781C74.763 5.41406 74.8828 6.15365 74.8828 6.97656V7.65625C74.8828 8.47917 74.763 9.22135 74.5234 9.88281C74.2839 10.5391 73.9375 11.099 73.4844 11.5625C73.0365 12.026 72.4948 12.3828 71.8594 12.6328C71.2292 12.8776 70.5182 13 69.7266 13ZM68.1562 1.625V13H66.6484V1.625H68.1562ZM1.32031 20.625H5.08594C5.9401 20.625 6.66146 20.7552 7.25 21.0156C7.84375 21.276 8.29427 21.6615 8.60156 22.1719C8.91406 22.6771 9.07031 23.2995 9.07031 24.0391C9.07031 24.5599 8.96354 25.0365 8.75 25.4688C8.54167 25.8958 8.23958 26.2604 7.84375 26.5625C7.45312 26.8594 6.98438 27.0807 6.4375 27.2266L6.01562 27.3906H2.47656L2.46094 26.1641H5.13281C5.67448 26.1641 6.125 26.0703 6.48438 25.8828C6.84375 25.6901 7.11458 25.4323 7.29688 25.1094C7.47917 24.7865 7.57031 24.4297 7.57031 24.0391C7.57031 23.6016 7.48438 23.2188 7.3125 22.8906C7.14062 22.5625 6.86979 22.3099 6.5 22.1328C6.13542 21.9505 5.66406 21.8594 5.08594 21.8594H2.82812V32H1.32031V20.625ZM7.96875 32L5.20312 26.8438L6.77344 26.8359L9.57812 31.9062V32H7.96875ZM10.5781 27.8672V27.6875C10.5781 27.0781 10.6667 26.513 10.8438 25.9922C11.0208 25.4661 11.276 25.0104 11.6094 24.625C11.9427 24.2344 12.3464 23.9323 12.8203 23.7188C13.2943 23.5 13.8255 23.3906 14.4141 23.3906C15.0078 23.3906 15.5417 23.5 16.0156 23.7188C16.4948 23.9323 16.901 24.2344 17.2344 24.625C17.5729 25.0104 17.8307 25.4661 18.0078 25.9922C18.1849 26.513 18.2734 27.0781 18.2734 27.6875V27.8672C18.2734 28.4766 18.1849 29.0417 18.0078 29.5625C17.8307 30.0833 17.5729 30.5391 17.2344 30.9297C16.901 31.3151 16.4974 31.6172 16.0234 31.8359C15.5547 32.0495 15.0234 32.1562 14.4297 32.1562C13.8359 32.1562 13.3021 32.0495 12.8281 31.8359C12.3542 31.6172 11.9479 31.3151 11.6094 30.9297C11.276 30.5391 11.0208 30.0833 10.8438 29.5625C10.6667 29.0417 10.5781 28.4766 10.5781 27.8672ZM12.0234 27.6875V27.8672C12.0234 28.2891 12.0729 28.6875 12.1719 29.0625C12.2708 29.4323 12.4193 29.7604 12.6172 30.0469C12.8203 30.3333 13.0729 30.5599 13.375 30.7266C13.6771 30.888 14.0286 30.9688 14.4297 30.9688C14.8255 30.9688 15.1719 30.888 15.4688 30.7266C15.7708 30.5599 16.0208 30.3333 16.2188 30.0469C16.4167 29.7604 16.5651 29.4323 16.6641 29.0625C16.7682 28.6875 16.8203 28.2891 16.8203 27.8672V27.6875C16.8203 27.2708 16.7682 26.8776 16.6641 26.5078C16.5651 26.1328 16.4141 25.8021 16.2109 25.5156C16.013 25.224 15.763 24.9948 15.4609 24.8281C15.1641 24.6615 14.8151 24.5781 14.4141 24.5781C14.0182 24.5781 13.6693 24.6615 13.3672 24.8281C13.0703 24.9948 12.8203 25.224 12.6172 25.5156C12.4193 25.8021 12.2708 26.1328 12.1719 26.5078C12.0729 26.8776 12.0234 27.2708 12.0234 27.6875ZM20.8906 23.5469L22.7422 26.625L24.6172 23.5469H26.3125L23.5469 27.7188L26.3984 32H24.7266L22.7734 28.8281L20.8203 32H19.1406L21.9844 27.7188L19.2266 23.5469H20.8906ZM32.8359 30.5547V26.2031C32.8359 25.8698 32.7682 25.5807 32.6328 25.3359C32.5026 25.0859 32.3047 24.8932 32.0391 24.7578C31.7734 24.6224 31.4453 24.5547 31.0547 24.5547C30.6901 24.5547 30.3698 24.6172 30.0938 24.7422C29.8229 24.8672 29.6094 25.0312 29.4531 25.2344C29.3021 25.4375 29.2266 25.6562 29.2266 25.8906H27.7812C27.7812 25.5885 27.8594 25.2891 28.0156 24.9922C28.1719 24.6953 28.3958 24.4271 28.6875 24.1875C28.9844 23.9427 29.3385 23.75 29.75 23.6094C30.1667 23.4635 30.6302 23.3906 31.1406 23.3906C31.7552 23.3906 32.2969 23.4948 32.7656 23.7031C33.2396 23.9115 33.6094 24.2266 33.875 24.6484C34.1458 25.0651 34.2812 25.5885 34.2812 26.2188V30.1562C34.2812 30.4375 34.3047 30.737 34.3516 31.0547C34.4036 31.3724 34.4792 31.6458 34.5781 31.875V32H33.0703C32.9974 31.8333 32.9401 31.612 32.8984 31.3359C32.8568 31.0547 32.8359 30.7943 32.8359 30.5547ZM33.0859 26.875L33.1016 27.8906H31.6406C31.2292 27.8906 30.862 27.9245 30.5391 27.9922C30.2161 28.0547 29.9453 28.151 29.7266 28.2812C29.5078 28.4115 29.3411 28.5755 29.2266 28.7734C29.112 28.9661 29.0547 29.1927 29.0547 29.4531C29.0547 29.7188 29.1146 29.9609 29.2344 30.1797C29.3542 30.3984 29.5339 30.5729 29.7734 30.7031C30.0182 30.8281 30.3177 30.8906 30.6719 30.8906C31.1146 30.8906 31.5052 30.7969 31.8438 30.6094C32.1823 30.4219 32.4505 30.1927 32.6484 29.9219C32.8516 29.651 32.9609 29.388 32.9766 29.1328L33.5938 29.8281C33.5573 30.0469 33.4583 30.2891 33.2969 30.5547C33.1354 30.8203 32.9193 31.0755 32.6484 31.3203C32.3828 31.5599 32.0651 31.7604 31.6953 31.9219C31.3307 32.0781 30.9193 32.1562 30.4609 32.1562C29.888 32.1562 29.3854 32.0443 28.9531 31.8203C28.526 31.5964 28.1927 31.2969 27.9531 30.9219C27.7188 30.5417 27.6016 30.1172 27.6016 29.6484C27.6016 29.1953 27.6901 28.7969 27.8672 28.4531C28.0443 28.1042 28.2995 27.8151 28.6328 27.5859C28.9661 27.3516 29.3672 27.1745 29.8359 27.0547C30.3047 26.9349 30.8281 26.875 31.4062 26.875H33.0859ZM38 25.3516V32H36.5547V23.5469H37.9219L38 25.3516ZM37.6562 27.4531L37.0547 27.4297C37.0599 26.8516 37.1458 26.3177 37.3125 25.8281C37.4792 25.3333 37.7135 24.9036 38.0156 24.5391C38.3177 24.1745 38.6771 23.8932 39.0938 23.6953C39.5156 23.4922 39.9818 23.3906 40.4922 23.3906C40.9089 23.3906 41.2839 23.4479 41.6172 23.5625C41.9505 23.6719 42.2344 23.849 42.4688 24.0938C42.7083 24.3385 42.8906 24.6562 43.0156 25.0469C43.1406 25.4323 43.2031 25.9036 43.2031 26.4609V32H41.75V26.4453C41.75 26.0026 41.6849 25.6484 41.5547 25.3828C41.4245 25.112 41.2344 24.9167 40.9844 24.7969C40.7344 24.6719 40.4271 24.6094 40.0625 24.6094C39.7031 24.6094 39.375 24.6849 39.0781 24.8359C38.7865 24.987 38.5339 25.1953 38.3203 25.4609C38.112 25.7266 37.9479 26.0312 37.8281 26.375C37.7135 26.7135 37.6562 27.0729 37.6562 27.4531ZM46.8438 25.3516V32H45.3984V23.5469H46.7656L46.8438 25.3516ZM46.5 27.4531L45.8984 27.4297C45.9036 26.8516 45.9896 26.3177 46.1562 25.8281C46.3229 25.3333 46.5573 24.9036 46.8594 24.5391C47.1615 24.1745 47.5208 23.8932 47.9375 23.6953C48.3594 23.4922 48.8255 23.3906 49.3359 23.3906C49.7526 23.3906 50.1276 23.4479 50.4609 23.5625C50.7943 23.6719 51.0781 23.849 51.3125 24.0938C51.5521 24.3385 51.7344 24.6562 51.8594 25.0469C51.9844 25.4323 52.0469 25.9036 52.0469 26.4609V32H50.5938V26.4453C50.5938 26.0026 50.5286 25.6484 50.3984 25.3828C50.2682 25.112 50.0781 24.9167 49.8281 24.7969C49.5781 24.6719 49.2708 24.6094 48.9062 24.6094C48.5469 24.6094 48.2188 24.6849 47.9219 24.8359C47.6302 24.987 47.3776 25.1953 47.1641 25.4609C46.9557 25.7266 46.7917 26.0312 46.6719 26.375C46.5573 26.7135 46.5 27.0729 46.5 27.4531Z" fill="black"/>
<line x1="55" y1="31.5" x2="75" y2="31.5" stroke="black"/>
<line x1="55" y1="23.5" x2="75" y2="23.5" stroke="black"/>
<line x1="55" y1="27.5" x2="75" y2="27.5" stroke="black"/>
</g>
<defs>
<clipPath id="clip0_601_9">
<rect width="76" height="34" fill="white"/>
</clipPath>
</defs>
</svg>
